<?xml version="1.0"?>
<svg xmlns="http://www.w3.org/2000/svg" xmlns:xlink="http://www.w3.org/1999/xlink" xmlns:svgjs="http://svgjs.com/svgjs" version="1.1" width="512" height="512" x="0" y="0" viewBox="0 0 479.906 479.906" style="enable-background:new 0 0 512 512" xml:space="preserve"><g>
<g xmlns="http://www.w3.org/2000/svg">
	<g>
		<path d="M289.186,394.786l65.173-130.24c4.48,1.28,9.067,1.92,13.76,2.027c29.44,0,53.333-23.893,53.333-53.333    c0-29.44-23.893-53.333-53.333-53.333c-4.8,0-9.6,0.747-14.293,2.133l-51.733-72.32c-0.853-1.173-1.813-2.133-3.093-2.88    c-1.173-3.2-2.987-6.187-5.44-8.64c-1.173-1.387-1.067-3.52,0.32-4.8l2.667-2.667c9.813-9.707,9.92-25.6,0.107-35.413    l-27.2-27.733c-4.693-4.8-11.093-7.573-17.813-7.573c-6.613-0.213-13.013,2.347-17.707,7.04l-2.667,2.667    c-0.747,0.64-1.6,1.067-2.667,1.067c-0.853,0.107-1.707-0.213-2.24-0.853c-9.707-9.6-25.28-9.6-34.987,0l-19.627,19.307    c-3.84,3.84-12.693,8-18.133,8.64l-88.96,9.92c-7.893,0.853-13.76,4.907-15.893,11.093c-2.133,6.187-0.32,13.12,5.333,18.88    l39.04,39.893c-8.427,11.947-13.013,26.133-13.333,40.747c-0.32,16.533,5.973,32.533,17.6,44.267    c12.053,12.16,28.16,18.133,44.8,18.133c14.293-0.107,28.267-4.373,40.213-12.267l40,40.747c4.267,4.267,9.067,6.507,13.867,6.507    c1.6,0,3.307-0.213,4.907-0.747c6.293-2.133,10.453-7.787,11.413-15.787l11.627-88.853c0.747-5.44,5.12-14.187,8.96-18.027    l19.413-19.093l41.813,58.56c-22.827,18.133-26.56,51.2-8.533,74.027c2.667,3.307,5.76,6.4,9.067,8.96l-69.867,139.84    c-84.373,2.773-142.4,32.533-142.4,74.56c0,5.867,4.8,10.667,10.667,10.667c45.547,0,242.453,0,288,0    c5.867,0,10.667-4.8,10.667-10.667C432.013,427.212,373.88,397.346,289.186,394.786z M112.76,187.639    c-7.573-7.787-11.627-18.24-11.413-29.12c0.213-8.853,2.773-17.6,7.467-25.173l58.24,59.413    C148.6,202.892,126.52,201.612,112.76,187.639z M281.72,55.372l-2.667,2.667c-9.813,9.493-10.133,25.173-0.64,34.987    c1.173,1.387,1.067,3.627-0.32,4.8l-19.627,19.307c-7.253,7.147-13.76,20.267-15.147,30.507l-10.667,81.28L74.786,67.852    l81.387-9.067c10.24-1.173,23.467-7.467,30.72-14.613l19.627-19.307c1.28-1.387,3.413-1.493,4.8-0.213    c4.587,4.693,10.88,7.253,17.387,7.253h0.107c6.613,0,12.907-2.56,17.493-7.253l2.667-2.667c0.64-0.64,1.493-0.96,2.453-0.96    c0.853-0.213,1.813,0.107,2.773,1.173l27.413,27.84C283,51.532,283.106,53.879,281.72,55.372z M368.013,181.239    c17.707,0,32,14.293,32,32c0,17.707-14.293,32-32,32s-32-14.293-32-32C336.013,195.532,350.306,181.239,368.013,181.239z     M146.573,458.572c12.053-24.64,65.173-42.667,130.773-42.667c65.6,0,118.72,18.027,130.773,42.667H146.573z" fill="#ffffff" data-original="#000000" style=""/>
	</g>
</g>
<g xmlns="http://www.w3.org/2000/svg">
</g>
<g xmlns="http://www.w3.org/2000/svg">
</g>
<g xmlns="http://www.w3.org/2000/svg">
</g>
<g xmlns="http://www.w3.org/2000/svg">
</g>
<g xmlns="http://www.w3.org/2000/svg">
</g>
<g xmlns="http://www.w3.org/2000/svg">
</g>
<g xmlns="http://www.w3.org/2000/svg">
</g>
<g xmlns="http://www.w3.org/2000/svg">
</g>
<g xmlns="http://www.w3.org/2000/svg">
</g>
<g xmlns="http://www.w3.org/2000/svg">
</g>
<g xmlns="http://www.w3.org/2000/svg">
</g>
<g xmlns="http://www.w3.org/2000/svg">
</g>
<g xmlns="http://www.w3.org/2000/svg">
</g>
<g xmlns="http://www.w3.org/2000/svg">
</g>
<g xmlns="http://www.w3.org/2000/svg">
</g>
</g></svg>
