<?xml version="1.0"?>
<svg xmlns="http://www.w3.org/2000/svg" xmlns:xlink="http://www.w3.org/1999/xlink" xmlns:svgjs="http://svgjs.com/svgjs" version="1.1" width="512" height="512" x="0" y="0" viewBox="0 0 448 448" style="enable-background:new 0 0 512 512" xml:space="preserve"><g>
<g xmlns="http://www.w3.org/2000/svg">
	<g>
		<path d="M410.667,426.667h-64V205.44c0-98.347-52.053-158.293-139.733-162.347C202.24,18.027,180.16-0.106,154.667,0    c-29.867,0-53.333,23.787-53.333,54.187v37.867C56.427,113.174,26.667,158.4,26.667,206.72V256h256v-49.28    c0-48.32-29.76-93.547-74.667-114.667V64.427c74.667,4.373,117.333,55.147,117.333,141.013v221.227h-64    c-5.867,0-10.667,4.8-10.667,10.667c0,5.867,4.8,10.667,10.667,10.667h149.333c5.867,0,10.667-4.8,10.667-10.667    C421.334,431.467,416.534,426.667,410.667,426.667z M261.334,206.72v27.947H48V206.72c0-42.027,27.307-81.28,68.053-97.813    l6.72-2.667V54.187c0-18.453,14.08-32.853,32-32.853c17.92,0,32,14.4,32,32.853v52.053l6.72,2.667    C234.027,125.44,261.334,164.694,261.334,206.72z" fill="#ffffff" data-original="#000000" style=""/>
	</g>
</g>
<g xmlns="http://www.w3.org/2000/svg">
</g>
<g xmlns="http://www.w3.org/2000/svg">
</g>
<g xmlns="http://www.w3.org/2000/svg">
</g>
<g xmlns="http://www.w3.org/2000/svg">
</g>
<g xmlns="http://www.w3.org/2000/svg">
</g>
<g xmlns="http://www.w3.org/2000/svg">
</g>
<g xmlns="http://www.w3.org/2000/svg">
</g>
<g xmlns="http://www.w3.org/2000/svg">
</g>
<g xmlns="http://www.w3.org/2000/svg">
</g>
<g xmlns="http://www.w3.org/2000/svg">
</g>
<g xmlns="http://www.w3.org/2000/svg">
</g>
<g xmlns="http://www.w3.org/2000/svg">
</g>
<g xmlns="http://www.w3.org/2000/svg">
</g>
<g xmlns="http://www.w3.org/2000/svg">
</g>
<g xmlns="http://www.w3.org/2000/svg">
</g>
</g></svg>
