<svg height="512pt" viewBox="0 -13 512.00052 512" width="512pt" xmlns="http://www.w3.org/2000/svg"><path d="m457.277344 461.886719c-23.503906-8.09375-35.804688-18.105469-35.804688-23.816407 0-15.207031 7.085938-16.441406 8.265625-16.527343 4.566407 0 8.265625-3.703125 8.265625-8.265625 0-4.433594-3.496094-8.054688-7.878906-8.257813-.136719-.003906-.265625-.007812-.386719-.007812-3.429687 0-84.289062.097656-109.664062 8.578125-7.980469 1.363281-59.242188-9.503906-67.355469-15.300782-.523438-.375-1.097656-.683593-1.695312-.933593-9.441407-3.847657-22.75-15.34375-33.15625-25.402344h30.042968c2.914063 0 5.609375-1.535156 7.101563-4.035156 1.484375-2.503907 1.550781-5.605469.160156-8.164063-1.582031-2.925781-3.179687-8.574218-4.59375-13.558594-1.09375-3.878906-2.128906-7.542968-3.257813-10.375-12.535156-31.332031-37.515624-41.5625-52.777343-44.902343 13.40625-27.109375 42.65625-95.1875 18.363281-130.675781-11.792969-17.234376-33.789062-23.847657-65.265625-19.632813-62.277344 8.300781-92.261719 88.804687-97.054687 102.917969l-48.203126 48.199218c-2.3398432 2.339844-3.007812 5.847657-1.773437 8.917969 1.226563 3.070313 4.222656 5.113281 7.53125 5.191407.550781.011718 13.65625.464843 27.304687 14.109374 2.632813 2.628907 6.945313 10.339844 10.34375 16.503907l-7.089843 23.632812c-1.96875 6.566407-.316407 13.441407 4.414062 18.398438 4.746094 4.960937 11.550781 6.921875 18.167969 5.257812l3.980469-.992187c.808593-.21875 1.429687.054687 1.816406.304687.378906.25.863281.71875 1 1.535157l4.355469 26.132812c.90625 5.4375 4.132812 10.191406 8.855468 13.03125 4.71875 2.847656 10.425782 3.472656 15.648438 1.730469l5.714844-1.902344c.929687-.3125 1.996094.035156 2.566406.835937l15.949219 22.25c3.59375 5.027344 9.332031 7.867188 15.296875 7.867188 1.808594 0 3.632812-.257812 5.421875-.800781.695312-.207031 1.363281-.507813 1.988281-.894531l4.410156-2.742188c.046875.023438.078125.070312.125.09375 12.703125 6 26.257813 10.226562 40.292969 12.566406 50.257813 8.378906 73.671875 8.378906 89.167969 8.378906 15.222656 0 22.171875 0 41.359375 7.675782 12.003906 4.796875 26.085937 6.441406 40.886719 6.441406 17.199218 0 35.367187-2.226562 52.308593-4.300781 16.167969-1.972657 31.386719-3.855469 41.476563-3.007813 4.160156.375 7.917968-2.453125 8.773437-6.535156s-1.449219-8.160156-5.398437-9.519531zm-46.863282 2.660156c-29.554687 3.609375-63.035156 7.71875-85.050781-1.089844-22.140625-8.855469-31.679687-8.855469-47.492187-8.855469-14.945313 0-37.539063 0-86.460938-8.148437-8.921875-1.488281-17.605468-3.867187-25.960937-7.027344l2.59375-1.613281c3.230469-.15625 10.761719-.0625 12.722656.199219l66.117187 8.265625c4.578126.597656 8.660157-2.648438 9.226563-7.175782.566406-4.527343-2.648437-8.660156-7.175781-9.226562l-65.351563-8.132812c-2.308593-.507813-17.046875-.945313-20.710937.152343-.695313.210938-1.355469.515625-1.976563.898438l-24.472656 15.210937c-.703125-.015625-1.378906-.355468-1.816406-.957031l-15.949219-22.25c-4.828125-6.757813-13.332031-9.53125-21.242188-6.898437l-5.707031 1.902343c-.808593.277344-1.484375.035157-1.898437-.210937-.332032-.203125-.917969-.675782-1.074219-1.585938l-4.355469-26.144531c-.867187-5.160156-3.875-9.769531-8.25-12.632813-4.367187-2.863281-9.769531-3.785156-14.875-2.519531l-3.988281.992188c-1.007813.277343-1.773437-.195313-2.203125-.640625-.417969-.4375-.84375-1.179688-.53125-2.230469l19.46875-64.882813c1.308594-4.375-1.171875-8.984374-5.546875-10.292968-4.40625-1.335938-8.984375 1.171875-10.289063 5.539062l-5.910156 19.703125c-1.761718-2.65625-3.457031-4.976562-5.121094-6.640625-7.933593-7.933594-15.972656-12.546875-22.675781-15.226562l39.203125-39.203125c.222656-.222657.285156-.550781.480469-.792969 8.582031 13.359375 19.292969 21.566406 32.023437 24.253906 3.132813.65625 6.222657.945313 9.242188.945313 21.664062 0 39.558594-14.964844 40.414062-15.6875 3.480469-2.960938 3.90625-8.171875.941407-11.652344-2.945313-3.484375-8.167969-3.894531-11.644531-.949219-.171876.148438-18.0625 14.859375-35.539063 11.167969-10.320313-2.179687-19.085937-10.589844-26.050781-24.996094-.371094-.765625-.929688-1.359375-1.480469-1.949219 11.054687-25.292968 36.703125-71.699218 77.777344-77.175781 24.804687-3.308593 41.453125.914063 49.445312 12.582031 19.082031 27.867188-9.050781 94.414063-23.222656 121.199219l-21.664063 7.21875c-4.324218 1.445313-6.667968 6.128907-5.222656 10.457031 1.15625 3.464844 4.375 5.65625 7.839844 5.65625.863281 0 1.742188-.136718 2.613281-.429687l23.363281-7.785156c6.300782.367187 36.09375 3.804687 48.996094 36.074219.890625 2.214843 1.761719 5.375 2.710938 8.730468.445312 1.574219.898437 3.160156 1.355468 4.730469h-62.511718c-4.566406 0-8.265625 3.699219-8.265625 8.265625 0 4.5625 3.699219 8.261719 8.265625 8.261719h21.171875c7.691406 8.234375 31.488281 32.71875 49.355469 40.402343 13.019531 7.910157 69.316406 20.878907 80.859374 17.03125 14.648438-4.886718 54.496094-6.875 82.714844-7.546874-1.664062 4.332031-2.683594 9.675781-2.683594 16.234374 0 10.144532 7.386719 18.511719 16.960938 25.09375-3.703125.425782-7.535156.894532-11.492188 1.382813zm0 0"/><path d="m173.527344 202.523438c0 6.84375-5.550782 12.394531-12.398438 12.394531s-12.398437-5.550781-12.398437-12.394531c0-6.847657 5.550781-12.398438 12.398437-12.398438s12.398438 5.550781 12.398438 12.398438zm0 0"/><path d="m510.933594 165.167969c-1.363282-2.460938-3.929688-4.0625-6.738282-4.242188-.558593-.035156-13.632812-1.027343-26.703124-15.226562-2.671876-2.894531-6.09375-8.902344-10.0625-15.855469-16.554688-29.015625-47.371094-83.027344-128.898438-100.105469-49.871094-10.445312-73.269531-11.40625-88.75-12.050781-15.207031-.628906-22.15625-.914062-41.011719-9.371094-25.507812-11.449218-61.382812-8.550781-93.011719-5.992187-16.246093 1.316406-31.609374 2.539062-41.574218 1.292969-4.175782-.511719-8.015625 2.113281-9.042969 6.167968-1.03125 4.039063 1.117187 8.210938 4.996094 9.730469 23.15625 9.054687 35.03125 19.566406 34.796875 25.273437-.628906 15.199219-7.757813 16.136719-8.941406 16.175782-4.214844-.042969-8.402344 3.351562-8.597657 7.914062-.183593 4.566406 3.359375 8.414063 7.917969 8.601563 3.414062.144531 84.199219 3.386719 109.921875-4.042969 7.949219-1.070312 58.796875 11.9375 66.660156 18.070312.507813.394532 1.066407.734376 1.65625 1 9.28125 4.238282 22.105469 16.273438 32.082031 26.75l-30.015624-1.238281c-2.921876-.148437-5.644532 1.292969-7.242188 3.714844 0 .003906-.003906.007813-.003906.011719-.003906.003906-.007813.007812-.011719.011718-.183594.28125-.28125.597657-.429687.894532-.167969.34375-.375.667968-.492188 1.023437-.101562.296875-.117188.609375-.179688.910157-.082031.390624-.199218.769531-.222656 1.164062-.019531.265625.039063.527344.046875.796875.015625.4375.003907.875.085938 1.308594.0625.316406.207031.617187.308593.925781.113282.359375.1875.730469.355469 1.078125.035157.074219.070313.175781.105469.257813 1.441406 3.035156 2.773438 8.609374 3.953125 13.554687.9375 3.914063 1.816406 7.605469 2.824219 10.46875 11.574218 32.796875 37.28125 43.75 52.234375 47.394531-19.117188 49.050782-32.644531 135.492188 34.296875 167.511719 6.070312 2.902344 12.171875 4.355469 18.28125 4.355469 5.796875 0 11.589844-1.308594 17.351562-3.917969 42.035156-19.082031 68.242188-106.148437 71.261719-116.621094l42.898437-79.765625c1.332032-2.480468 1.265626-5.472656-.105468-7.929687zm-54.777344 75.066406c-7.28125-9.929687-16.289062-16.605469-27.007812-19.75-27.191407-7.992187-54.410157 9.949219-55.554688 10.71875-3.785156 2.539063-4.792969 7.648437-2.269531 11.445313 2.527343 3.785156 7.652343 4.800781 11.453125 2.292968.226562-.144531 22.078125-14.402344 41.785156-8.578125 9.984375 2.953125 18.058594 10.890625 24.089844 23.476563-10.046875 30.175781-32.199219 82.609375-58.617188 94.589844-7.261718 3.296874-14.339844 3.195312-21.652344-.296876-67.835937-32.453124-31.667968-132.390624-23.671874-152.21875l21.308593-6.140624c4.382813-1.261719 6.917969-5.84375 5.648438-10.230469-1.257813-4.375-5.789063-6.929688-10.234375-5.652344l-23.652344 6.816406c-6.296875-.628906-35.910156-5.300781-47.472656-38.066406-.789063-2.246094-1.53125-5.429687-2.339844-8.8125-.320312-1.359375-.652344-2.730469-.988281-4.09375.417969-.195313.820312-.394531 1.199219-.65625l28.039062 1.15625c.003906 0 .007812.003906.007812.003906l33.035157 1.363281c.117187.003907.226562.007813.347656.007813 4.40625 0 8.0625-3.480469 8.25-7.925781.183594-4.558594-3.359375-8.410156-7.917969-8.59375l-21.152344-.875c-7.34375-8.539063-30.105468-33.988282-47.640624-42.40625-12.6875-8.445313-68.417969-23.714844-80.082032-20.355469-14.851562 4.277344-54.753906 4.621094-82.960937 4.125 1.839843-4.257813 3.082031-9.5625 3.347656-16.109375.417969-10.140625-6.609375-18.804688-15.898437-25.773438 3.710937-.273437 7.5625-.582031 11.53125-.902343 29.679687-2.394531 63.296874-5.113281 84.925781 4.589843 21.761719 9.769532 31.292969 10.164063 47.097656 10.816407 14.933594.617187 37.507813 1.550781 86.039063 11.714843 74.25 15.550782 101.59375 63.480469 117.929687 92.117188 4.648437 8.144531 8.320313 14.582031 12.261719 18.859375 9.222656 10.027344 18.820312 15.164063 26.078125 17.789063zm0 0"/><path d="m355.84375 278.503906c-6.84375-.285156-12.617188 5.03125-12.898438 11.875-.285156 6.839844 5.03125 12.613282 11.875 12.898438 6.839844.28125 12.613282-5.035156 12.898438-11.875.28125-6.84375-5.035156-12.617188-11.875-12.898438zm0 0"/></svg>