<svg viewBox="0 1 511 511.99961" xmlns="http://www.w3.org/2000/svg"><path d="m233.648438 124.246094c0 4.546875 2.769531 8.460937 7.054687 9.976562l79.199219 28.019532 28.015625 79.199218c1.515625 4.285156 5.433593 7.050782 9.976562 7.050782 4.546875 0 8.460938-2.765626 9.976563-7.050782l28.019531-79.199218 79.199219-28.019532c4.285156-1.515625 7.054687-5.429687 7.054687-9.976562s-2.769531-8.460938-7.054687-9.976563l-79.199219-28.019531-28.019531-79.195312c-3.332032-9.433594-16.636719-9.378907-19.953125-.003907l-28.015625 79.199219-79.199219 28.019531c-4.285156 1.515625-7.054687 5.433594-7.054687 9.976563zm93.261718-24.535156c3.027344-1.074219 5.378906-3.421876 6.449219-6.449219l24.535156-69.359375 24.539063 69.359375c1.070312 3.027343 3.421875 5.375 6.445312 6.449219l69.363282 24.535156-69.359376 24.539062c-3.027343 1.070313-5.378906 3.421875-6.449218 6.445313l-24.539063 69.363281-24.535156-69.359375c-1.070313-3.027344-3.421875-5.378906-6.449219-6.449219l-69.359375-24.539062zm0 0"/><path d="m357.894531 151.316406c14.925781 0 27.070313-12.144531 27.070313-27.070312 0-14.925782-12.144532-27.066406-27.070313-27.066406-14.921875 0-27.066406 12.140624-27.066406 27.066406 0 14.925781 12.140625 27.070312 27.066406 27.070312zm0-39.113281c6.644531 0 12.042969 5.402344 12.042969 12.042969s-5.402344 12.042968-12.042969 12.042968c-6.636719 0-12.042969-5.402343-12.042969-12.042968s5.402344-12.042969 12.042969-12.042969zm0 0"/><path d="m202.960938 388.214844 28.015624-79.199219 79.199219-28.019531c9.429688-3.332032 9.375-16.636719 0-19.953125l-79.199219-28.015625-28.015624-79.199219c-1.515626-4.285156-5.433594-7.054687-9.976563-7.054687-4.546875 0-8.460937 2.769531-9.980469 7.054687l-28.015625 79.199219-79.199219 28.015625c-4.285156 1.515625-7.054687 5.433593-7.054687 9.976562 0 4.546875 2.769531 8.460938 7.054687 9.976563l79.199219 28.019531 28.019531 79.199219c3.328126 9.40625 16.628907 9.394531 19.953126 0zm-40.960938-92.660156-69.363281-24.535157 69.359375-24.539062c3.027344-1.070313 5.378906-3.421875 6.449218-6.445313l24.539063-69.363281 24.535156 69.363281c1.074219 3.023438 3.421875 5.375 6.449219 6.445313l69.359375 24.539062-69.359375 24.535157c-3.027344 1.070312-5.375 3.421874-6.449219 6.449218l-24.535156 69.363282-24.539063-69.363282c-1.070312-3.027344-3.421874-5.378906-6.445312-6.449218zm0 0"/><path d="m220.050781 271.019531c0-14.925781-12.140625-27.070312-27.066406-27.070312s-27.070313 12.144531-27.070313 27.070312 12.144532 27.066407 27.070313 27.066407 27.066406-12.140626 27.066406-27.066407zm-39.113281 0c0-6.640625 5.402344-12.042969 12.046875-12.042969 6.640625 0 12.042969 5.402344 12.042969 12.042969s-5.402344 12.042969-12.042969 12.042969c-6.644531 0-12.046875-5.402344-12.046875-12.042969zm0 0"/><path d="m503.496094 377.777344-79.203125-28.015625-28.015625-79.199219c-3.324219-9.394531-16.625-9.414062-19.953125 0l-28.019531 79.199219-79.199219 28.015625c-9.390625 3.324218-9.410157 16.625 0 19.953125l79.199219 28.019531 28.019531 79.199219c3.324219 9.390625 16.625 9.410156 19.953125 0l28.019531-79.199219 79.199219-28.019531c9.390625-3.320313 9.410156-16.625 0-19.953125zm-86.210938 34.511718c-3.023437 1.070313-5.375 3.421876-6.449218 6.449219l-24.535157 69.363281-24.539062-69.359374c-1.070313-3.027344-3.417969-5.378907-6.445313-6.449219l-69.363281-24.539063 69.363281-24.535156c3.027344-1.074219 5.375-3.421875 6.445313-6.449219l24.539062-69.363281 24.539063 69.367188c1.070312 3.023437 3.421875 5.375 6.445312 6.441406l69.363282 24.539062zm0 0"/><path d="m386.300781 360.6875c-14.925781 0-27.066406 12.140625-27.066406 27.066406 0 14.925782 12.140625 27.066406 27.066406 27.066406s27.066407-12.140624 27.066407-27.066406c0-14.925781-12.140626-27.066406-27.066407-27.066406zm0 39.109375c-6.640625 0-12.042969-5.402344-12.042969-12.042969s5.402344-12.042968 12.042969-12.042968 12.042969 5.402343 12.042969 12.042968-5.402344 12.042969-12.042969 12.042969zm0 0"/><path d="m52.585938 271.019531c0-4.148437-3.363282-7.511719-7.511719-7.511719h-37.0625c-4.148438 0-7.511719 3.363282-7.511719 7.511719 0 4.148438 3.363281 7.511719 7.511719 7.511719h37.0625c4.148437 0 7.511719-3.363281 7.511719-7.511719zm0 0"/><path d="m76.246094 376.296875c-4.148438 0-7.511719 3.367187-7.511719 7.515625s3.363281 7.511719 7.511719 7.511719h40.066406c4.148438 0 7.511719-3.363281 7.511719-7.511719s-3.363281-7.515625-7.511719-7.515625zm0 0"/><path d="m146.363281 376.296875c-4.148437 0-7.511719 3.367187-7.511719 7.515625s3.363282 7.511719 7.511719 7.511719h8.558594c4.148437 0 7.511719-3.363281 7.511719-7.511719s-3.363282-7.515625-7.511719-7.515625zm0 0"/><path d="m136.011719 208.253906c0-4.148437-3.363281-7.511718-7.511719-7.511718h-104.503906c-4.152344 0-7.515625 3.363281-7.515625 7.511718 0 4.148438 3.363281 7.511719 7.515625 7.511719h104.503906c4.148438 0 7.511719-3.363281 7.511719-7.511719zm0 0"/><path d="m94.777344 78.207031h147.242187c4.148438 0 7.511719-3.363281 7.511719-7.511719 0-4.148437-3.363281-7.511718-7.511719-7.511718h-147.242187c-4.148438 0-7.511719 3.363281-7.511719 7.511718 0 4.148438 3.363281 7.511719 7.511719 7.511719zm0 0"/><path d="m272.070312 78.207031h26.753907c4.148437 0 7.511719-3.363281 7.511719-7.511719 0-4.148437-3.363282-7.511718-7.511719-7.511718h-26.753907c-4.148437 0-7.511718 3.363281-7.511718 7.511718 0 4.148438 3.363281 7.511719 7.511718 7.511719zm0 0"/><path d="m8.011719 128.289062h204.046875c4.148437 0 7.511718-3.363281 7.511718-7.511718 0-4.148438-3.363281-7.511719-7.511718-7.511719h-204.046875c-4.148438 0-7.511719 3.363281-7.511719 7.511719 0 4.148437 3.363281 7.511718 7.511719 7.511718zm0 0"/><path d="m339.222656 469.183594h-147.242187c-4.148438 0-7.511719 3.363281-7.511719 7.511718 0 4.152344 3.363281 7.515626 7.511719 7.515626h147.242187c4.148438 0 7.511719-3.363282 7.511719-7.515626 0-4.148437-3.359375-7.511718-7.511719-7.511718zm0 0"/><path d="m161.929688 469.183594h-26.753907c-4.148437 0-7.511719 3.363281-7.511719 7.511718 0 4.152344 3.363282 7.515626 7.511719 7.515626h26.753907c4.152343 0 7.515624-3.363282 7.515624-7.515626 0-4.148437-3.363281-7.511718-7.515624-7.511718zm0 0"/><path d="m281.796875 430.621094c0-4.148438-3.363281-7.511719-7.511719-7.511719h-253.753906c-4.148438 0-7.511719 3.363281-7.511719 7.511719 0 4.148437 3.363281 7.511718 7.511719 7.511718h253.753906c4.148438 0 7.511719-3.363281 7.511719-7.511718zm0 0"/></svg>