<?xml version="1.0"?>
<svg xmlns="http://www.w3.org/2000/svg" xmlns:xlink="http://www.w3.org/1999/xlink" xmlns:svgjs="http://svgjs.com/svgjs" version="1.1" width="512" height="512" x="0" y="0" viewBox="0 0 512.00057 512" style="enable-background:new 0 0 512 512" xml:space="preserve"><g><path xmlns="http://www.w3.org/2000/svg" d="m510.375 205.152344c-4.0625-12.507813-15.703125-17.949219-26.351562-20.863282 6.902343-8.613281 13.125-19.855468 9.058593-32.367187-3.847656-11.847656-15.011719-22.027344-31.433593-28.667969-16.121094-6.519531-36.109376-9.148437-57.808594-7.605468-20.824219 1.480468-39.871094 7.785156-54.960938 14.601562 1.949219-15.585938 2.410156-35.511719-2.816406-56.582031-5.238281-21.113281-13.917969-39.3125-25.097656-52.628907-11.390625-13.566406-24.523438-21.039062-36.980469-21.039062-13.15625 0-21.925781 9.390625-27.984375 18.613281-6.058594-9.222656-14.828125-18.613281-27.984375-18.613281-12.457031 0-25.589844 7.472656-36.976563 21.039062-11.183593 13.316407-19.859374 31.515626-25.097656 52.628907-4.988281 20.109375-5.03125 39.8125-3.210937 56.398437-15.023438-6.742187-33.921875-12.953125-54.566407-14.417968-21.695312-1.542969-41.6875 1.085937-57.8125 7.605468-16.421874 6.640625-27.582031 16.820313-31.433593 28.667969-4.066407 12.511719 2.15625 23.753906 9.058593 32.367187-10.648437 2.914063-22.289062 8.355469-26.351562 20.863282-3.851562 11.847656-.804688 26.644531 8.578125 41.667968 9.210937 14.75 23.839844 28.628907 42.296875 40.132813 17.554688 10.941406 36.238281 17.066406 52.5625 20.464844-11.203125 12.335937-22.71875 28.273437-30.488281 47.453125-8.175781 20.15625-11.851563 39.980468-10.632813 57.332031 1.238282 17.667969 7.472656 31.429687 17.550782 38.753906 10.644531 7.730469 23.257812 5.289063 33.582031 1.386719-.523438 11.027344 1.054687 23.777344 11.699219 31.515625 10.078124 7.316406 25.09375 8.992187 42.277343 4.710937 16.875-4.203124 34.59375-13.824218 51.238281-27.824218 16.242188-13.660156 27.503907-30.488282 35.195313-44.601563 8.300781 14.703125 20.0625 31.011719 36.222656 44.601563 16.644531 14.003906 34.363281 23.625 51.238281 27.828125 6.234376 1.550781 12.183594 2.320312 17.714844 2.320312 9.714844 0 18.144532-2.375 24.5625-7.039062 10.640625-7.730469 12.21875-20.480469 11.703125-31.507813 10.324219 3.902344 22.941407 6.34375 33.585938-1.390625 10.074219-7.324219 16.308593-21.085937 17.546875-38.753906 1.21875-17.347656-2.460938-37.171875-10.632813-57.328125-7.839843-19.347656-19.722656-35.515625-30.863281-47.757812 15.417969-2.960938 34.515625-8.683594 52.9375-20.164063 18.457031-11.503906 33.085938-25.382813 42.296875-40.132813 9.382813-15.023437 12.429687-29.820312 8.578125-41.667968zm-66.742188 56.339844c-26.019531 16.21875-54.007812 18.160156-65.960937 18.992187-1.964844.132813-3.515625.242187-4.828125.394531-10.148438 1.179688-13.300781 8.050782-14.1875 10.949219-1.847656 6.054687.21875 12.507813 5.261719 16.4375 9.773437 7.605469 33.785156 28.46875 45.707031 57.878906 13.15625 32.449219 8.46875 54.84375 3.953125 59.898438-3.429687-.261719-11-3.828125-14.378906-5.421875-8.445313-3.976563-18.011719-8.488282-26.824219-2.074219-8.824219 6.40625-7.496094 16.898437-6.324219 26.148437.46875 3.707032 1.519531 12.015626.707031 15.355469-6.203124 2.738281-28.941406.277344-55.742187-22.261719-24.011719-20.199218-36.476563-49.277343-40.71875-60.839843-2.183594-5.953125-7.625-9.9375-13.863281-10.15625-.1875-.007813-.382813-.007813-.578125-.007813-4.496094 0-10.511719 1.84375-14.773438 10.160156-.839843 1.648438-1.753906 3.679688-2.902343 6.25-5.449219 12.148438-16.78125 37.425782-37.195313 54.589844-26.796875 22.535156-49.542969 24.996094-55.746094 22.269532-.808593-3.34375.242188-11.648438.710938-15.351563 1.171875-9.257813 2.503906-19.75-6.320313-26.15625-8.824218-6.40625-18.386718-1.902344-26.824218 2.070313-3.378907 1.59375-10.953126 5.160156-14.382813 5.421874-4.515625-5.0625-9.203125-27.453124 3.953125-59.898437 11.917969-29.402344 35.945312-50.261719 45.726562-57.867187 4.984376-3.878907 7.007813-10.464844 5.058594-16.472657-1.953125-6.007812-7.457031-10.148437-13.769531-10.359375-12.390625-.410156-44.117187-3.179687-71.019531-19.945312-29.714844-18.519532-39.082032-39.386719-38.398438-46.132813 2.925782-1.804687 11.15625-3.371093 14.824219-4.070312 9.160156-1.742188 19.542969-3.71875 22.917969-14.085938 3.371094-10.371093-3.871094-18.078125-10.261719-24.875-2.558594-2.722656-8.292969-8.824219-9.601563-12.003906 3.414063-5.859375 23.269532-17.234375 58.1875-14.75 31.667969 2.246094 58.917969 18.640625 69.164063 25.585937 5.230469 3.542969 12.121094 3.433594 17.230469-.28125 5.109375-3.710937 7.351562-10.226562 5.597656-16.292968-3.4375-11.910156-10.605469-42.929688-2.972656-73.695313 8.429687-33.984375 25.382812-49.339843 32.011718-50.777343 2.621094 2.226562 6.652344 9.566406 8.449219 12.835937 4.488281 8.175781 9.578125 17.445313 20.484375 17.445313 10.902344 0 15.992188-9.265626 20.480469-17.441407 1.796875-3.273437 5.828125-10.613281 8.449219-12.839843 6.628906 1.4375 23.582031 16.792968 32.011718 50.777343 7.382813 29.753907.582032 56.976563-2.320312 68.601563-.476562 1.910156-.851562 3.417968-1.113281 4.71875-2.015625 10.011718 3.542969 15.132812 6.027343 16.871094 5.191407 3.628906 11.960938 3.660156 17.257813.074218 10.253906-6.941406 37.523437-23.335937 69.171875-25.582031 34.925781-2.488281 54.769531 8.890625 58.183594 14.753906-1.308594 3.179688-7.042969 9.277344-9.597656 12-6.390626 6.796875-13.632813 14.503907-10.261719 24.878907 3.371093 10.363281 13.753906 12.339843 22.914062 14.085937 3.671875.699219 11.902344 2.265625 14.828125 4.070313.683594 6.734374-8.683594 27.605468-38.402344 46.125zm0 0" fill="#ff0000" data-original="#000000" style=""/><path xmlns="http://www.w3.org/2000/svg" d="m289.902344 283.816406c1.539062.5 3.101562.738282 4.636718.738282 6.324219 0 12.203126-4.03125 14.261719-10.367188 2.5625-7.878906-1.75-16.34375-9.628906-18.902344l-18.902344-6.140625 11.683594-16.078125c4.867187-6.703125 3.382813-16.082031-3.316406-20.953125-6.707031-4.871093-16.085938-3.382812-20.953125 3.316407l-11.679688 16.082031-11.683594-16.082031c-4.867187-6.699219-14.25-8.1875-20.949218-3.316407-6.703125 4.867188-8.1875 14.246094-3.320313 20.949219l11.683594 16.082031-18.902344 6.140625c-7.878906 2.5625-12.191406 11.023438-9.632812 18.902344 2.0625 6.339844 7.941406 10.367188 14.265625 10.367188 1.535156 0 3.097656-.238282 4.636718-.738282l18.902344-6.140625v19.871094c0 8.285156 6.714844 15 15 15 8.28125 0 15-6.714844 15-15v-19.871094zm0 0" fill="#ff0000" data-original="#000000" style=""/><path xmlns="http://www.w3.org/2000/svg" d="m256 203.578125c8.285156 0 15-6.714844 15-15v-31.089844c0-8.285156-6.714844-15-15-15s-15 6.714844-15 15v31.089844c0 8.285156 6.714844 15 15 15zm0 0" fill="#ff0000" data-original="#000000" style=""/><path xmlns="http://www.w3.org/2000/svg" d="m190.730469 251.007812c6.320312 0 12.203125-4.03125 14.261719-10.371093 2.5625-7.878907-1.753907-16.339844-9.628907-18.898438l-29.566406-9.609375c-7.886719-2.558594-16.34375 1.753906-18.902344 9.632813-2.558593 7.878906 1.753907 16.339843 9.628907 18.898437l29.566406 9.605469c1.542968.503906 3.105468.742187 4.640625.742187zm0 0" fill="#ff0000" data-original="#000000" style=""/><path xmlns="http://www.w3.org/2000/svg" d="m224.476562 300.601562c-6.703124-4.871093-16.082031-3.382812-20.953124 3.316407l-18.273438 25.152343c-4.867188 6.703126-3.382812 16.085938 3.320312 20.953126 2.660157 1.933593 5.746094 2.867187 8.804688 2.867187 4.636719 0 9.210938-2.144531 12.144531-6.183594l18.273438-25.152343c4.871093-6.703126 3.382812-16.082032-3.316407-20.953126zm0 0" fill="#ff0000" data-original="#000000" style=""/><path xmlns="http://www.w3.org/2000/svg" d="m308.476562 303.921875c-4.867187-6.703125-14.246093-8.1875-20.949218-3.320313-6.703125 4.871094-8.1875 14.25-3.320313 20.953126l18.273438 25.152343c2.9375 4.039063 7.511719 6.183594 12.148437 6.183594 3.058594 0 6.140625-.933594 8.804688-2.867187 6.699218-4.867188 8.1875-14.25 3.316406-20.949219zm0 0" fill="#ff0000" data-original="#000000" style=""/><path xmlns="http://www.w3.org/2000/svg" d="m346.207031 212.128906-29.566406 9.609375c-7.878906 2.558594-12.191406 11.019531-9.628906 18.898438 2.058593 6.339843 7.9375 10.371093 14.261719 10.371093 1.535156 0 3.097656-.238281 4.636718-.738281l29.566406-9.609375c7.878907-2.558594 12.191407-11.019531 9.632813-18.898437-2.5625-7.878907-11.023437-12.191407-18.902344-9.632813zm0 0" fill="#ff0000" data-original="#000000" style=""/></g></svg>
