<?xml version="1.0"?>
<svg xmlns="http://www.w3.org/2000/svg" xmlns:xlink="http://www.w3.org/1999/xlink" xmlns:svgjs="http://svgjs.com/svgjs" version="1.1" width="512" height="512" x="0" y="0" viewBox="0 0 512 512" style="enable-background:new 0 0 512 512" xml:space="preserve"><g><g xmlns="http://www.w3.org/2000/svg"><path d="m393.714 137.714c-50.585 0-93.849 31.922-110.723 76.677-7.775-5.061-17.042-8.015-26.991-8.015s-19.216 2.954-26.991 8.015c-16.874-44.755-60.137-76.677-110.723-76.677-65.224 0-118.286 53.063-118.286 118.286s53.062 118.286 118.286 118.286c65.223 0 118.285-53.062 118.285-118.286 0-.808-.015-1.612-.031-2.416 1.197-9.682 9.459-17.208 19.459-17.208s18.263 7.525 19.459 17.208c-.016.804-.031 1.608-.031 2.416 0 65.223 53.062 118.286 118.285 118.286 65.226 0 118.288-53.063 118.288-118.286s-53.062-118.286-118.286-118.286zm-193.798 151.901c-1.569-43.682-37.572-78.74-81.63-78.74-24.882 0-45.125 20.243-45.125 45.125s20.243 45.125 45.125 45.125c8.284 0 15-6.716 15-15s-6.716-15-15-15c-8.34 0-15.125-6.785-15.125-15.125s6.785-15.125 15.125-15.125c28.511 0 51.705 23.195 51.705 51.706 0 28.51-23.194 51.705-51.705 51.705-48.682 0-88.286-39.605-88.286-88.286s39.604-88.286 88.286-88.286c47.559 0 86.449 37.803 88.215 84.938-.074 1.108-.125 2.221-.125 3.347h.195c0 11.897-2.37 23.249-6.655 33.616zm275.429 0c-1.569-43.682-37.573-78.74-81.631-78.74-24.882 0-45.125 20.243-45.125 45.125s20.243 45.125 45.125 45.125c8.284 0 15-6.716 15-15s-6.716-15-15-15c-8.34 0-15.125-6.785-15.125-15.125s6.785-15.125 15.125-15.125c28.511 0 51.706 23.195 51.706 51.706 0 28.51-23.195 51.705-51.706 51.705-48.681 0-88.285-39.605-88.285-88.286h.195c0-1.126-.051-2.24-.125-3.347 1.767-47.135 40.656-84.938 88.215-84.938 48.682-.001 88.286 39.604 88.286 88.285 0 11.896-2.371 23.248-6.655 33.615z" fill="#ff0000" data-original="#000000" style=""/></g></g></svg>
